<svg xmlns="http://www.w3.org/2000/svg" xmlns:xlink="http://www.w3.org/1999/xlink" xmlns:serif="http://www.serif.com/" width="100%" height="100%" viewBox="0 0 4725 2835" version="1.1" xml:space="preserve"><g transform="matrix(1,0,0,1,-12356.102106,-11263.291339)"><g id="Artboard5" transform="matrix(1,0,0,1,-7484.527816,11263.291339)"><rect x="19840.63" y="0" width="4724.409" height="2834.646" style="fill:none;"/><g transform="matrix(1.065849,0,0,1.065849,22189.619896,1393.700787)"><g transform="matrix(1,0,0,1,-2110.791667,-576.229167)"><g transform="matrix(4.166667,0,0,4.166667,0,0)"><path d="M682.62,0L682.62,276.59C606.24,276.59 544.32,214.67 544.32,138.29C544.32,61.91 606.24,0 682.62,0" style="fill:rgb(155,133,121);fill-rule:nonzero;"/><path d="M335.62,276.59C412,276.59 473.92,214.67 473.92,138.29C473.92,61.91 412,0 335.62,0L335.62,276.59Z" style="fill:rgb(155,133,121);fill-rule:nonzero;"/></g><g transform="matrix(4.166667,0,0,4.166667,0,0)"><g><path d="M0,168.78L15.81,168.78C31.1,168.63 42.37,178.51 42.15,192.78C42.37,206.76 31.1,217.3 15.81,217.08L0,217.08L0,168.78ZM15.73,208.15C25.46,208.15 31.98,202.08 31.98,192.78C31.98,183.48 25.61,177.71 15.73,177.71L9.88,177.71L9.88,208.15L15.73,208.15Z" style="fill:rgb(155,133,121);fill-rule:nonzero;"/><path d="M107.13,210.78L87.37,210.78L84.66,217.07L74.05,217.07L95.64,167.9L98.93,167.9L120.44,217.07L109.83,217.07L107.12,210.78L107.13,210.78ZM97.26,186.34L90.82,202.66L103.7,202.66L97.26,186.34Z" style="fill:rgb(155,133,121);fill-rule:nonzero;"/><path d="M197.37,168.78L197.37,217.95L194.08,217.95L166.13,188.09L166.13,217.07L156.25,217.07L156.25,167.9L159.47,167.9L187.49,197.61L187.49,168.78L197.37,168.78Z" style="fill:rgb(155,133,121);fill-rule:nonzero;"/><path d="M266.16,210.78L246.4,210.78L243.69,217.07L233.08,217.07L254.67,167.9L257.96,167.9L279.47,217.07L268.86,217.07L266.15,210.78L266.16,210.78ZM256.28,186.34L249.84,202.66L262.72,202.66L256.28,186.34Z" style="fill:rgb(155,133,121);fill-rule:nonzero;"/><path d="M769.56,167.9C778.71,167.9 786.54,172.36 790.86,179.9L783.4,185.17C779.96,179.75 775.35,177.05 769.57,177.05C760.57,177.05 753.98,183.78 753.98,193C753.98,202.22 760.57,208.81 769.57,208.81C775.35,208.81 779.96,206.1 783.4,200.69L790.86,205.96C786.69,213.5 778.78,217.96 769.49,217.96C755.37,218.25 743.51,206.77 743.8,192.93C743.58,179.1 755.51,167.61 769.56,167.9Z" style="fill:rgb(155,133,121);fill-rule:nonzero;"/><path d="M828.55,168.78L838.43,168.78L838.43,208.15L859.58,208.15L859.58,217.08L828.55,217.08L828.55,168.78Z" style="fill:rgb(155,133,121);fill-rule:nonzero;"/><path d="M894.92,168.78L904.8,168.78L904.8,197.83C904.8,204.85 909.19,208.81 915.41,208.81C921.63,208.81 926.02,204.86 926.02,197.83L926.02,168.78L935.9,168.78L935.9,197.1C935.9,209.91 927.12,217.95 915.41,217.95C903.7,217.95 894.92,209.9 894.92,197.1L894.92,168.78Z" style="fill:rgb(155,133,121);fill-rule:nonzero;"/><path d="M997.3,217.08L975.78,217.08L975.78,168.78L992.91,168.78C1001.84,168.78 1008.2,174.34 1008.2,182.24C1008.2,185.75 1007.03,188.68 1004.61,190.95C1009.95,192.92 1013.17,197.02 1013.17,202.88C1013.17,211.22 1006.58,217.08 997.29,217.08L997.3,217.08ZM985.3,177.27L985.3,188.32L992.11,188.32C996.13,188.32 998.4,186.2 998.4,182.76C998.4,179.32 996.13,177.27 992.11,177.27L985.3,177.27ZM996.57,196.44L985.3,196.44L985.3,208.59L996.57,208.59C1000.89,208.59 1003.45,206.32 1003.45,202.52C1003.45,198.72 1000.89,196.45 996.57,196.45L996.57,196.44Z" style="fill:rgb(155,133,121);fill-rule:nonzero;"/></g><g><g><path d="M79.83,130.91C60.15,130.91 52.97,121.58 52.97,107.02C52.97,93.49 61.27,81.6 78.81,81.6C90.09,81.6 99.42,85.19 99.42,85.19L99.42,123.43L110.8,123.43L110.8,130.91L79.83,130.91ZM90.19,91.44C90.19,91.44 85.17,89.08 77.78,89.08C68.25,89.08 62.51,95.85 62.51,106C62.51,117.69 67.94,123.43 81.17,123.43L90.19,123.43L90.19,91.44ZM64.97,67.76C64.97,64.79 67.33,62.33 70.4,62.33C73.47,62.33 75.83,64.69 75.83,67.76C75.83,70.83 73.37,73.3 70.4,73.3C67.43,73.3 64.97,70.94 64.97,67.76ZM80.04,67.76C80.04,64.79 82.5,62.33 85.58,62.33C88.66,62.33 90.91,64.69 90.91,67.76C90.91,70.83 88.55,73.3 85.58,73.3C82.61,73.3 80.04,70.94 80.04,67.76Z" style="fill:rgb(155,133,121);fill-rule:nonzero;"/><path d="M109.25,123.43L124.22,123.43L124.22,82.73L133.65,82.73L133.65,130.91L109.25,130.91L109.25,123.43ZM123.4,66.22C123.4,63.14 125.86,60.58 128.94,60.58C132.02,60.58 134.58,63.04 134.58,66.22C134.58,69.4 132.02,71.76 128.94,71.76C125.86,71.76 123.4,69.3 123.4,66.22Z" style="fill:rgb(155,133,121);fill-rule:nonzero;"/><rect x="152.41" y="58.63" width="9.43" height="72.28" style="fill:rgb(155,133,121);fill-rule:nonzero;"/><path d="M176.9,123.43L209.82,123.43C209.51,104.67 202.13,94.21 183.98,88.68L186.34,80.68C207.87,87.34 218.53,99.34 219.14,123.43L227.03,123.43L227.03,130.91L176.9,130.91L176.9,123.43Z" style="fill:rgb(155,133,121);fill-rule:nonzero;"/><path d="M225.61,123.43L239.96,123.43L239.96,58.63L249.39,58.63L249.39,130.91L225.61,130.91L225.61,123.43Z" style="fill:rgb(155,133,121);fill-rule:nonzero;"/><rect x="268.87" y="58.63" width="9.43" height="72.28" style="fill:rgb(155,133,121);fill-rule:nonzero;"/></g><g><path d="M778.6,130.91C752.66,130.91 742.61,120.56 742.61,101.08C742.61,94.93 744.15,88.06 745.99,84.06L756.04,82.32C753.68,87.14 752.14,94.21 752.14,99.95C752.14,115.53 758.29,123.43 779.72,123.43L788.43,123.43L788.43,83.55C788.43,83.55 797.45,81.6 807.19,81.6C824.31,81.6 830.05,90.01 830.05,104.05L830.05,118.61L820.82,118.61L820.82,105.28C820.82,93.59 816.62,89.08 806.26,89.08C802.06,89.08 797.65,89.9 797.65,89.9L797.65,130.91L778.58,130.91L778.6,130.91ZM769.38,151.72C766.3,151.72 763.95,149.36 763.95,146.18C763.95,143.21 766.31,140.75 769.38,140.75C772.45,140.75 774.81,143.11 774.81,146.18C774.81,149.25 772.35,151.72 769.38,151.72ZM784.55,151.72C781.47,151.72 779.01,149.36 779.01,146.18C779.01,143.21 781.47,140.75 784.55,140.75C787.63,140.75 789.88,143.11 789.88,146.18C789.88,149.25 787.52,151.72 784.55,151.72Z" style="fill:rgb(155,133,121);fill-rule:nonzero;"/><path d="M844.11,123.43L877.02,123.43C876.71,104.67 869.33,94.21 851.18,88.68L853.54,80.68C875.79,87.55 886.34,100.06 886.34,125.79L886.34,130.92L844.1,130.92L844.1,123.44L844.11,123.43Z" style="fill:rgb(155,133,121);fill-rule:nonzero;"/><path d="M902.54,58.63L911.97,58.63L911.97,123.42L923.25,123.42L923.25,130.9L902.54,130.9L902.54,58.63Z" style="fill:rgb(155,133,121);fill-rule:nonzero;"/><path d="M921.71,123.43L936.68,123.43L936.68,82.73L946.11,82.73L946.11,130.91L921.71,130.91L921.71,123.43ZM935.86,66.22C935.86,63.14 938.32,60.58 941.4,60.58C944.48,60.58 947.04,63.04 947.04,66.22C947.04,69.4 944.48,71.76 941.4,71.76C938.32,71.76 935.86,69.3 935.86,66.22Z" style="fill:rgb(155,133,121);fill-rule:nonzero;"/></g></g></g></g></g></g></g></svg>